<?xml version="1.0" standalone="no"?>
<!DOCTYPE svg PUBLIC "-//W3C//DTD SVG 1.0//EN" "http://www.w3.org/TR/2001/REC-SVG-20010904/DTD/svg10.dtd">
<svg xmlns="http://www.w3.org/2000/svg" xmlns:xlink="http://www.w3.org/1999/xlink" id="body_1" width="20" height="15">

<g transform="matrix(0.05859375 0 0 0.05859375 2.5000005 -0)">
    <path d="M0 0L256 0L256 256L0 256z" stroke="none" fill="none" />
    <path d="M211.5 129.2C 218.31415 123.35611 224.57416 116.89523 230.2 109.899994C 231.54303 108.26249 232.17233 106.15432 231.94672 104.04857C 231.7211 101.94281 230.65945 100.01581 229 98.7C 227.3751 97.34568 225.27496 96.69957 223.16982 96.90633C 221.06465 97.113075 219.13034 98.15543 217.8 99.799995C 211.54034 107.604065 204.39206 114.65166 196.5 120.799995L196.5 120.799995L196.3 120.799995C 179.8 133.59999 157.3 143.9 128 143.9C 103.24673 144.13797 79.140625 135.99687 59.6 120.799995L59.6 120.799995L59.5 120.799995C 51.607918 114.65166 44.459656 107.604065 38.2 99.799995C 36.869648 98.15543 34.93534 97.113075 32.83018 96.90633C 30.725025 96.69957 28.624884 97.34568 27 98.7C 25.340555 100.01581 24.278906 101.9428 24.053288 104.04856C 23.827671 106.15432 24.456982 108.26249 25.8 109.899994C 31.425888 116.8953 37.68579 123.35605 44.5 129.2L44.5 129.2L25 163C 23.573433 165.47084 23.570736 168.51443 24.992926 170.98781C 26.415115 173.46118 29.046917 174.98994 31.9 175C 34.73717 174.95035 37.347023 173.4374 38.8 171L38.8 171L57.3 138.9C 68.12048 146.18398 80.0382 151.68704 92.6 155.2L92.6 155.2L86.7 188.2C 85.9709 192.5532 88.86135 196.68878 93.2 197.5L93.2 197.5L94.6 197.5C 98.48706 197.51138 101.819786 194.72708 102.5 190.9L102.5 190.9L108.2 158.5C 114.75603 159.46867 121.37285 159.96996 128 160C 134.59174 160.00684 141.17549 159.53896 147.7 158.6L147.7 158.6L153.4 191C 154.08022 194.82709 157.41293 197.61139 161.29999 197.6L161.29999 197.6L162.69998 197.6C 167.03864 196.78879 169.92908 192.65321 169.19998 188.3L169.19998 188.3L163.39998 155.4C 175.92831 151.83328 187.80992 146.29755 198.6 139L198.6 139L217 170.8C 218.44182 173.29756 221.11626 174.82582 224 174.8C 225.40955 174.81139 226.79448 174.43053 228 173.7C 231.79922 171.48206 233.09474 166.61267 230.9 162.8L230.9 162.8L211.5 129.2z" stroke="none" fill="#FFF" fill-rule="nonzero" />
</g>
</svg>